<svg width="76" height="70" viewBox="0 0 76 70" fill="none" xmlns="http://www.w3.org/2000/svg">
<path d="M37.5266 0C36.9125 0 36.2984 0.0136563 35.6852 0.0416874C35.0719 0.069 34.4594 0.110687 33.8484 0.166031C33.2367 0.221375 32.6273 0.291094 32.0203 0.37375C31.4125 0.456406 30.8078 0.553437 30.2055 0.663406C29.6031 0.773375 29.0039 0.897 28.4078 1.035C27.8125 1.17228 27.2203 1.3225 26.6328 1.48637C26.0453 1.65097 25.4625 1.82778 24.8844 2.01825C24.3055 2.20872 23.7328 2.41212 23.1656 2.62775C22.5984 2.84409 22.0367 3.07337 21.482 3.31487C20.9266 3.55637 20.3781 3.81009 19.8367 4.07675C19.2945 4.34269 18.7609 4.62156 18.2336 4.91194C17.707 5.20231 17.1883 5.50419 16.6781 5.81828C16.1672 6.13237 15.6648 6.45725 15.1719 6.79434C14.6789 7.13072 14.1945 7.47787 13.7195 7.83653C13.2453 8.19519 12.7805 8.5639 12.325 8.9434C11.8703 9.3229 11.4258 9.71247 10.9914 10.1121C10.557 10.5117 10.1336 10.9207 9.72109 11.339C9.30859 11.758 8.90781 12.1857 8.51797 12.622C8.12812 13.059 7.75078 13.5046 7.38516 13.9581C7.01875 14.4117 6.66562 14.8738 6.32422 15.3439C5.98281 15.8132 5.65469 16.2905 5.33906 16.7749C5.02344 17.2601 4.72031 17.751 4.43125 18.2498C4.14141 18.7479 3.86562 19.2524 3.60312 19.7635C3.34062 20.2738 3.09141 20.7906 2.85625 21.3124C2.62187 21.8342 2.40078 22.361 2.19375 22.8936C1.98672 23.4255 1.79453 23.9617 1.61562 24.5022C1.4375 25.0427 1.27422 25.5875 1.125 26.1352C0.975781 26.6836 0.840625 27.2349 0.721094 27.789C0.601562 28.3432 0.496094 28.8995 0.40625 29.4587C0.316406 30.0171 0.240625 30.5778 0.180469 31.1406C0.120312 31.7026 0.075 32.2661 0.0453124 32.8303C0.0148438 33.3946 0 33.9595 0 34.5244C0 35.0894 0.0148438 35.6536 0.0453124 36.2185C0.075 36.7827 0.120312 37.3455 0.180469 37.9083C0.240625 38.4704 0.316406 39.031 0.40625 39.5902C0.496094 40.1486 0.601562 40.7057 0.721094 41.2598C0.840625 41.814 0.975781 42.3646 1.125 42.913C1.27422 43.4606 1.4375 44.0055 1.61562 44.546C1.79453 45.0865 1.98672 45.6234 2.19375 46.1552C2.40078 46.6871 2.62187 47.214 2.85625 47.7358C3.09141 48.2583 3.34062 48.7744 3.60312 49.2854C3.86562 49.7957 4.14141 50.3003 4.43125 50.7991C4.72031 51.2972 5.02344 51.7888 5.33906 52.2732C5.65469 52.7577 5.98281 53.2349 6.32422 53.705C6.66562 54.1743 7.01875 54.6365 7.38516 55.09C7.75078 55.5443 8.12812 55.9892 8.51797 56.4262C8.90781 56.8632 9.30859 57.2908 9.72109 57.7091C10.1336 58.1275 10.557 58.5371 10.9914 58.9368C11.4258 59.3357 11.8703 59.7252 12.325 60.1047C12.7805 60.4842 13.2453 60.853 13.7195 61.2116C14.1945 61.5703 14.6789 61.9174 15.1719 62.2545C15.6648 62.5909 16.1672 62.9158 16.6781 63.2299C17.1883 63.544 17.707 63.8458 18.2336 64.1362C18.7609 64.4273 19.2945 64.7055 19.8367 64.9721C20.3781 65.238 20.9266 65.4918 21.482 65.734C22.0367 65.9755 22.5984 66.204 23.1656 66.4204C23.7328 66.6367 24.3055 66.8401 24.8844 67.0299C25.4625 67.2204 26.0453 67.3979 26.6328 67.5618C27.2203 67.7256 27.8125 67.8766 28.4078 68.0139C29.0039 68.1511 29.6031 68.2748 30.2055 68.3847C30.8078 68.4954 31.4125 68.5917 32.0203 68.6744C32.6273 68.7578 33.2367 68.8268 33.8484 68.8821C34.4594 68.9375 35.0719 68.9791 35.6852 69.0065C36.2984 69.0345 36.9125 69.0481 37.5266 69.0481C38.1406 69.0481 38.7539 69.0345 39.368 69.0065C39.9812 68.9791 40.593 68.9375 41.2047 68.8821C41.8156 68.8268 42.425 68.7578 43.0328 68.6744C43.6398 68.5917 44.2453 68.4954 44.8477 68.3847C45.45 68.2748 46.0484 68.1511 46.6445 68.0139C47.2398 67.8766 47.832 67.7256 48.4195 67.5618C49.007 67.3979 49.5906 67.2204 50.1687 67.0299C50.7469 66.8401 51.3195 66.6367 51.8867 66.4204C52.4547 66.204 53.0156 65.9755 53.5711 65.7333C54.1258 65.4918 54.6742 65.238 55.2164 64.9714C55.7578 64.7055 56.2922 64.4273 56.8187 64.1362C57.3453 63.8458 57.8641 63.544 58.375 63.2299C58.8852 62.9158 59.3875 62.5909 59.8805 62.2545C60.3742 61.9174 60.8578 61.5703 61.3328 61.2116C61.8078 60.853 62.2727 60.4842 62.7273 60.1047C63.182 59.7252 63.6273 59.3357 64.0617 58.9368C64.4953 58.5371 64.9187 58.1275 65.3312 57.7091C65.7437 57.2908 66.1445 56.8632 66.5344 56.4262C66.9242 55.9892 67.3016 55.5443 67.668 55.09C68.0336 54.6365 68.3867 54.1743 68.7281 53.705C69.0695 53.2349 69.3977 52.7577 69.7133 52.2732C70.0297 51.7888 70.332 51.2972 70.6219 50.7991C70.9109 50.3003 71.1867 49.7957 71.45 49.2854C71.7125 48.7744 71.9609 48.2583 72.1961 47.7358C72.4312 47.214 72.6523 46.6871 72.8586 46.1552C73.0656 45.6234 73.2586 45.0865 73.4367 44.546C73.6148 44.0055 73.7789 43.4606 73.9281 42.913C74.0773 42.3646 74.2117 41.814 74.3312 41.2598C74.4516 40.7057 74.5562 40.1486 74.6461 39.5902C74.7367 39.031 74.8117 38.4704 74.8719 37.9083C74.932 37.3455 74.9773 36.7827 75.007 36.2185C75.0375 35.6536 75.0523 35.0894 75.0523 34.5244C75.0523 33.9595 75.0375 33.3946 75.007 32.8303C74.9773 32.2661 74.932 31.7026 74.8719 31.1406C74.8117 30.5778 74.7367 30.0171 74.6461 29.4587C74.5562 28.8995 74.4516 28.3432 74.3312 27.789C74.2117 27.2349 74.0773 26.6836 73.9281 26.1352C73.7789 25.5875 73.6148 25.0427 73.4367 24.5022C73.2586 23.9617 73.0656 23.4255 72.8586 22.8936C72.6523 22.361 72.4312 21.8342 72.1961 21.3124C71.9609 20.7906 71.7125 20.2738 71.4492 19.7635C71.1867 19.2524 70.9109 18.7479 70.6211 18.2498C70.332 17.751 70.0297 17.2601 69.7133 16.7749C69.3977 16.2905 69.0695 15.8132 68.7281 15.3439C68.3867 14.8738 68.0336 14.4117 67.668 13.9581C67.3016 13.5046 66.9242 13.059 66.5344 12.622C66.1445 12.1857 65.7437 11.758 65.3312 11.339C64.9187 10.9207 64.4953 10.5117 64.0617 10.1121C63.6273 9.71247 63.182 9.3229 62.7273 8.9434C62.2727 8.5639 61.8078 8.19519 61.3328 7.83653C60.8578 7.47787 60.3742 7.13072 59.8805 6.79434C59.3875 6.45725 58.8852 6.13237 58.375 5.81828C57.8641 5.50419 57.3453 5.20231 56.8187 4.91194C56.2922 4.62156 55.7578 4.34269 55.2164 4.07675C54.6742 3.81009 54.1258 3.55637 53.5711 3.31487C53.0156 3.07337 52.4547 2.84409 51.8867 2.62775C51.3195 2.41212 50.7469 2.20872 50.1687 2.01825C49.5906 1.82778 49.007 1.65097 48.4195 1.48637C47.832 1.3225 47.2398 1.17228 46.6445 1.035C46.0484 0.897 45.45 0.773375 44.8477 0.663406C44.2453 0.553437 43.6398 0.456406 43.0328 0.37375C42.425 0.291094 41.8156 0.221375 41.2047 0.166031C40.593 0.110687 39.9812 0.069 39.368 0.0416874C38.7539 0.0136563 38.1406 0 37.5266 0Z" fill="#F1EDED"/>
<path d="M47.1656 19.0771C44.3508 18.3526 40.9164 17.9378 37.5102 17.9378C34.1047 17.9378 30.6984 18.3526 27.8555 19.0771C23.1547 20.2946 23.1547 21.5891 23.1547 22.029V35.8563C23.1547 36.0633 23.1828 36.2444 23.2391 36.4255C23.5203 37.2801 24.5617 40.3614 26.7297 43.5203C29.6008 47.7408 33.1758 50.2787 37.2852 51.0298L37.5102 51.0816L37.7359 51.0298C41.8453 50.2528 45.4203 47.7408 48.2914 43.5203C50.4313 40.3614 51.5008 37.306 51.782 36.4255C51.8383 36.2444 51.8664 36.0374 51.8664 35.8563V22.029C51.8664 21.5891 51.8664 20.2946 47.1656 19.0771ZM26.5883 27.4412C26.4758 27.1817 26.6164 26.8712 26.8984 26.7677C26.9547 26.7418 32.3875 24.7739 35.9625 28.451C36.1594 28.658 36.1594 28.9944 35.9344 29.1755C35.8219 29.279 35.6805 29.3307 35.5399 29.3307C35.3992 29.3307 35.2305 29.279 35.118 29.1496C32.0492 26.0166 27.3484 27.7258 27.2922 27.7258C27.0109 27.8552 26.7016 27.7258 26.5883 27.4412ZM37.5102 36.9696C38.1859 36.3738 39.0867 36.2703 39.5656 36.322C39.875 36.3479 40.1 36.6074 40.0438 36.892C40.0156 37.1766 39.7344 37.3836 39.425 37.3319C39.3117 37.3319 38.4399 37.2542 38.0172 38.0571C37.9609 38.1347 37.9047 38.2123 37.8203 38.2641C37.8203 38.2641 37.7922 38.2641 37.7922 38.29L37.7641 38.3158C37.7359 38.3158 37.7359 38.3158 37.7078 38.3417C37.7078 38.3417 37.6797 38.3417 37.6797 38.3676C37.6234 38.3676 37.5953 38.3935 37.5391 38.3935C37.482 38.3935 37.4539 38.3935 37.3977 38.3676C37.3977 38.3676 37.3695 38.3676 37.3414 38.3417C37.3133 38.3417 37.3133 38.3417 37.2852 38.3158C37.257 38.3158 37.257 38.29 37.257 38.29C37.257 38.29 37.2289 38.29 37.2289 38.2641C37.1445 38.2123 37.0883 38.1347 37.032 38.0571C36.6102 37.2284 35.6524 37.3319 35.6524 37.3319C35.343 37.3577 35.0617 37.1766 35.0336 36.892C35.0055 36.6074 35.2024 36.3479 35.5117 36.322C35.9344 36.2703 36.8352 36.3738 37.5102 36.9696ZM27.3766 30.8847C27.9117 30.3923 29.2625 29.3307 30.7547 29.3307C32.2469 29.3307 33.5695 30.3665 34.1328 30.8588C33.5977 31.3504 32.2469 32.4379 30.7547 32.4379C29.2625 32.4379 27.9399 31.3763 27.3766 30.8847ZM43.4219 42.0447C41.7328 43.3133 39.3688 44.8155 37.5102 44.8155C35.6524 44.8155 33.2602 43.3133 31.5992 42.0447C31.5149 41.993 31.4305 41.9153 31.3742 41.8377L33.5414 42.614C34.8367 43.0804 36.2156 43.3133 37.5953 43.3133C38.9461 43.3133 40.2977 43.0804 41.5922 42.614L43.5625 41.9153C43.5063 41.9671 43.4781 41.993 43.4219 42.0447ZM43.5063 40.8279L41.1703 41.6559C38.8336 42.4846 36.2719 42.4846 33.9641 41.63L31.5149 40.7502C31.4867 40.7502 31.4586 40.7244 31.4024 40.7244C31.5992 40.4908 31.9086 40.3355 32.2469 40.3355H35.2586C35.7938 40.3355 36.2719 40.4908 36.7227 40.7502C36.9477 40.9055 37.2289 40.9831 37.5391 40.9831C37.8203 40.9831 38.1016 40.9055 38.3547 40.7502C38.3547 40.7502 38.3828 40.7502 38.3828 40.7244C38.7774 40.4649 39.2836 40.3097 39.8188 40.3097H42.8024C43.1688 40.3097 43.5063 40.4908 43.675 40.7502C43.5906 40.802 43.5344 40.802 43.5063 40.8279ZM44.2664 32.4379C42.7742 32.4379 41.4516 31.3763 40.8883 30.8847C41.4234 30.3923 42.7742 29.3307 44.2664 29.3307C45.7586 29.3307 47.0813 30.3665 47.6445 30.8588C47.1094 31.3504 45.7586 32.4379 44.2664 32.4379ZM48.4328 27.4412C48.3195 27.6999 47.982 27.8293 47.7008 27.7258C47.5039 27.6482 42.9438 26.0166 39.875 29.1496C39.7906 29.279 39.6219 29.3307 39.4813 29.3307C39.3406 29.3307 39.1992 29.279 39.1149 29.2014C38.8899 29.0202 38.8617 28.6839 39.0867 28.4769C42.6899 24.7997 48.0945 26.7677 48.1508 26.7936C48.4328 26.8712 48.5734 27.1817 48.4328 27.4412ZM50.7406 24.1522C50.6281 23.35 45.2797 21.045 37.5102 21.045C29.7414 21.045 24.393 23.35 24.2805 24.1522V22.7024C26.5883 21.2268 32.0774 20.0093 37.5102 20.0093C42.9438 20.0093 48.4328 21.2268 50.7406 22.7283V24.1522Z" fill="#505661"/>
<path d="M47.6703 34.4145L46.85 33.1775C46.8367 33.1574 46.8117 33.1444 46.7844 33.1444C46.7578 33.1444 46.7328 33.1574 46.7188 33.1775L45.8984 34.4145C45.7773 34.5733 45.7133 34.7587 45.7133 34.9514C45.7133 35.4775 46.1938 35.9059 46.7844 35.9059C47.375 35.9059 47.8555 35.4775 47.8555 34.9514C47.8555 34.7587 47.7914 34.5733 47.6703 34.4145ZM46.7844 35.77C46.2781 35.77 45.8664 35.4028 45.8664 34.9514C45.8664 34.7853 45.9219 34.6258 46.0266 34.4899C46.0273 34.4885 46.0281 34.4871 46.0297 34.4856L46.7844 33.3464L47.5398 34.4856C47.5406 34.4871 47.5414 34.4878 47.5422 34.4892C47.5422 34.4892 47.543 34.4892 47.543 34.4899C47.6477 34.6258 47.7031 34.7853 47.7031 34.9514C47.7031 35.4028 47.2906 35.77 46.7844 35.77Z" fill="#F1EDED"/>
<path d="M46.6781 35.4308C46.4414 35.4308 46.2485 35.259 46.2485 35.0484C46.2485 35.0103 46.2141 34.9801 46.1719 34.9801C46.1297 34.9801 46.0953 35.0103 46.0953 35.0484C46.0953 35.3338 46.3571 35.5666 46.6781 35.5666C46.7203 35.5666 46.7547 35.5364 46.7547 35.4983C46.7547 35.461 46.7203 35.4308 46.6781 35.4308Z" fill="#F1EDED"/>
<path d="M12.161 21.7547L11.3142 21.4643L10.5142 22.4332L11.0423 23.106L10.5423 23.7126L8.42041 20.7485L8.98916 20.0613L12.661 21.1481L12.161 21.7547ZM10.6923 21.2401L9.86103 20.9641C9.80478 20.9454 9.73291 20.9202 9.64541 20.8893C9.55791 20.8592 9.47041 20.829 9.38291 20.8002C9.29385 20.77 9.21729 20.7413 9.15479 20.714C9.19854 20.7657 9.25166 20.8304 9.31416 20.9066C9.37666 20.9835 9.43604 21.0561 9.49229 21.1251C9.54697 21.1927 9.58447 21.2422 9.60478 21.2746L10.1204 21.933L10.6923 21.2401Z" fill="#505661"/>
<path d="M16.6149 17.5535L16.0493 18.0279L14.0306 16.001L13.3774 16.553C13.4673 16.6702 13.5665 16.7988 13.6743 16.9383C13.7829 17.0763 13.8899 17.2172 13.9962 17.3609C14.1024 17.5047 14.2024 17.6419 14.2962 17.772C14.3899 17.9028 14.4712 18.0193 14.5399 18.1228C14.6477 18.2917 14.7251 18.4491 14.7712 18.5943C14.8165 18.7402 14.8196 18.8789 14.7806 19.0112C14.7407 19.1434 14.6462 19.2728 14.4962 19.3993C14.3977 19.4819 14.2962 19.5452 14.1899 19.589L13.7649 19.1607C13.8071 19.1456 13.8462 19.1276 13.8837 19.106C13.9212 19.0852 13.9587 19.0593 13.9962 19.0284C14.0696 18.9673 14.0899 18.8861 14.0587 18.784C14.0274 18.6805 13.9352 18.5152 13.7806 18.2867C13.7227 18.2026 13.6298 18.071 13.5024 17.8928C13.3759 17.7131 13.2243 17.5039 13.0493 17.266C12.8727 17.0267 12.6829 16.7758 12.4806 16.5128L14.1681 15.0925L16.6149 17.5535Z" fill="#505661"/>
<path d="M20.9014 14.767L19.1452 15.8049L17.1858 12.9989L18.942 11.961L19.2795 12.4469L18.1702 13.1024L18.6014 13.7205L19.6327 13.1082L19.9733 13.5969L18.942 14.2093L19.4483 14.9309L20.5577 14.2754L20.9014 14.767Z" fill="#505661"/>
<path d="M26.2718 12.3782L25.4718 12.6945L23.5343 11.6221L24.2624 13.1746L23.5562 13.4535L22.1218 10.3916L22.8281 10.1127L23.5218 11.5962L24.0218 9.63837L24.7718 9.34225L24.2468 11.2915L26.2718 12.3782Z" fill="#505661"/>
<path d="M29.6378 8.57978C29.3503 8.64303 29.1565 8.78966 29.0565 9.01966C28.9565 9.24966 28.9519 9.53644 29.044 9.87928C29.1331 10.2243 29.2729 10.4766 29.4628 10.6354C29.6519 10.7928 29.9019 10.8367 30.2128 10.7677C30.3542 10.7375 30.4925 10.6915 30.6284 10.6297C30.7659 10.5664 30.9104 10.4902 31.0628 10.3997L31.2159 10.9747C31.0761 11.0667 30.9347 11.1436 30.7909 11.2047C30.6472 11.2665 30.4815 11.3168 30.294 11.357C29.9292 11.4397 29.6112 11.4375 29.3409 11.3513C29.0698 11.265 28.8448 11.1098 28.6659 10.8855C28.4886 10.6598 28.3565 10.3795 28.269 10.046C28.1839 9.72044 28.1737 9.41785 28.2378 9.13753C28.3003 8.85794 28.4347 8.61931 28.6409 8.42166C28.8487 8.22472 29.1315 8.08672 29.4878 8.00766C29.6628 7.96956 29.8425 7.9516 30.0284 7.95303C30.2159 7.95519 30.3987 7.97316 30.5784 8.00766L30.4847 8.62003C30.3386 8.59128 30.1925 8.57044 30.0472 8.55678C29.9011 8.54385 29.7644 8.55103 29.6378 8.57978Z" fill="#505661"/>
<path d="M36.4454 10.5457L36.1266 9.76942L34.8079 9.84992L34.6016 10.6578L33.7766 10.7067L34.8172 7.2883L35.7516 7.23367L37.2735 10.4968L36.4454 10.5457ZM35.8985 9.1858L35.586 8.43255C35.5649 8.37936 35.5375 8.31324 35.5047 8.23417C35.4711 8.15367 35.4375 8.07317 35.4047 7.99267C35.3735 7.91074 35.3461 7.83742 35.3235 7.77417C35.3125 7.83958 35.2961 7.91936 35.2735 8.0128C35.25 8.10695 35.2297 8.19608 35.211 8.28017C35.1922 8.36283 35.1766 8.42249 35.1641 8.45842L34.9579 9.2433L35.8985 9.1858Z" fill="#505661"/>
<path d="M42.9142 10.8932L42.1517 10.8127L42.333 9.38097L40.9049 9.2286L40.7236 10.6603L39.9611 10.5798L40.3767 7.26785L41.1392 7.34835L40.9767 8.64785L42.4049 8.80022L42.5674 7.50072L43.3299 7.58122L42.9142 10.8932Z" fill="#505661"/>
<path d="M49.7704 9.08071L48.8829 11.7027L49.3423 11.835L48.8392 13.3271L48.1329 13.1258L48.4454 12.1972L46.2767 11.5762L45.9642 12.5048L45.2579 12.3007L45.7611 10.8086L46.0298 10.8862C46.2251 10.7022 46.4204 10.4974 46.6142 10.271C46.8079 10.0453 46.9986 9.78796 47.1861 9.50046C47.3751 9.21296 47.565 8.88162 47.7548 8.50571L49.7704 9.08071ZM48.8454 9.43146L48.1454 9.23309C48.0454 9.4329 47.9236 9.64277 47.7798 9.86271C47.6376 10.0812 47.4829 10.2983 47.3142 10.5125C47.1454 10.7274 46.9736 10.9257 46.7986 11.1076L48.1486 11.4928L48.8454 9.43146Z" fill="#505661"/>
<path d="M54.4126 10.9594C54.8266 11.157 55.0829 11.3834 55.1813 11.6379C55.2813 11.893 55.2501 12.164 55.0876 12.4515C54.9891 12.6261 54.8594 12.7699 54.6969 12.8827C54.5344 12.9941 54.336 13.0516 54.1032 13.0552C53.8696 13.0595 53.5969 12.9877 53.2844 12.8396L52.9938 12.6987L52.4001 13.7539L51.7188 13.429L53.3844 10.4677L54.4126 10.9594ZM54.0907 11.4539L53.7782 11.3044L53.2813 12.187L53.5063 12.2962C53.6977 12.3868 53.8704 12.4227 54.0251 12.4055C54.179 12.3882 54.3001 12.3013 54.3876 12.1439C54.5501 11.8549 54.4508 11.6249 54.0907 11.4539Z" fill="#505661"/>
<path d="M61.5252 19.9788L60.9752 19.4901L62.0658 18.4551L61.0314 17.5351L59.9408 18.5701L59.3908 18.0785L61.9127 15.6836L62.4627 16.1752L61.4752 17.1153L62.5095 18.0353L63.497 17.0952L64.047 17.584L61.5252 19.9788Z" fill="#505661"/>
<path d="M64.583 22.735C64.708 22.6488 64.7776 22.541 64.7924 22.413C64.8088 22.2844 64.769 22.1615 64.6737 22.045C64.5776 21.9279 64.4596 21.8582 64.3205 21.8352C64.1807 21.8107 64.0487 21.8409 63.9237 21.9272C63.7987 22.0134 63.7276 22.1212 63.7112 22.252C63.6963 22.3843 63.737 22.5086 63.833 22.6258C63.9284 22.7422 64.0463 22.8112 64.1862 22.8328C64.3252 22.8536 64.458 22.8213 64.583 22.735Z" fill="#505661"/>
<path d="M18.8502 54.9964C19.058 55.1595 19.1752 55.3155 19.2002 55.465C19.2252 55.6145 19.1736 55.7582 19.0471 55.8962C18.9736 55.9767 18.8846 56.0357 18.7783 56.0745C18.6736 56.1126 18.5549 56.1176 18.4221 56.0889C18.2885 56.0601 18.1424 55.9832 17.9846 55.8589L17.8002 55.718L17.2721 56.2872L17.0721 56.1291L18.4283 54.6657L18.8502 54.9964ZM18.6846 55.1401L18.4814 54.982L17.9471 55.5599L18.1096 55.6864C18.2596 55.8035 18.3924 55.8689 18.5096 55.8819C18.626 55.8955 18.7346 55.8488 18.8346 55.741C18.9221 55.6454 18.9541 55.5484 18.9314 55.4506C18.908 55.3529 18.826 55.2494 18.6846 55.1401Z" fill="#505661"/>
<path d="M20.1032 58.3058L20.2782 57.6876L19.6032 57.2449L19.0219 57.5928L18.8063 57.4519L20.6907 56.3191L20.8844 56.4456L20.3251 58.4524L20.1032 58.3058ZM20.3469 57.472L20.5251 56.8711C20.529 56.856 20.5376 56.8302 20.5501 56.7935C20.5626 56.7554 20.5766 56.7173 20.5938 56.6785C20.6102 56.6383 20.6219 56.6059 20.6282 56.5808C20.5797 56.6196 20.5321 56.6555 20.4844 56.69C20.4383 56.7245 20.4008 56.7518 20.3719 56.7705L19.8094 57.1155L20.3469 57.472Z" fill="#505661"/>
<path d="M22.9481 57.9021C22.7543 57.7972 22.5637 57.7728 22.3762 57.8303C22.1902 57.8863 22.0309 58.0171 21.8981 58.2241C21.7645 58.4297 21.7106 58.6202 21.7356 58.7963C21.7606 58.9723 21.877 59.1168 22.0856 59.2304C22.1621 59.2721 22.2395 59.3058 22.3168 59.331C22.3957 59.3576 22.4762 59.3813 22.5574 59.4029L22.4418 59.584C22.3582 59.5703 22.277 59.5495 22.1981 59.5208C22.1207 59.492 22.0324 59.4503 21.9324 59.3971C21.7488 59.2972 21.6184 59.1786 21.5418 59.0406C21.4645 58.9041 21.4363 58.756 21.4574 58.595C21.4801 58.4326 21.5465 58.2658 21.6574 58.0948C21.7652 57.9266 21.8934 57.7972 22.0418 57.7066C22.1918 57.6168 22.3543 57.5708 22.5293 57.5686C22.7043 57.5672 22.884 57.6168 23.0699 57.7181C23.2574 57.8216 23.4012 57.9438 23.5012 58.0833L23.2981 58.2126C23.2559 58.1573 23.2074 58.1027 23.1512 58.0488C23.0965 57.9956 23.0293 57.9467 22.9481 57.9021Z" fill="#505661"/>
<path d="M23.4955 60.1605L24.3955 58.424L25.8112 59.045L24.9112 60.7815L24.6768 60.6808L25.4768 59.137L24.533 58.7201L23.733 60.264L23.4955 60.1605Z" fill="#505661"/>
<path d="M28.2303 60.9317C28.1569 61.12 28.0585 61.2709 27.9335 61.3859C27.8085 61.5024 27.6632 61.5764 27.4991 61.6073C27.3343 61.6396 27.153 61.6231 26.9553 61.5584C26.7507 61.4894 26.5968 61.3946 26.4928 61.2738C26.3905 61.1531 26.3335 61.0115 26.321 60.8483C26.31 60.6859 26.3413 60.5105 26.4147 60.3222C26.4874 60.1367 26.5843 59.9858 26.7053 59.8708C26.828 59.7544 26.971 59.6796 27.1335 59.6465C27.2975 59.6142 27.4835 59.6322 27.6897 59.7012C27.8874 59.7666 28.0374 59.8593 28.1397 59.98C28.2436 60.1008 28.303 60.2431 28.3178 60.4056C28.3319 60.5687 28.303 60.7441 28.2303 60.9317ZM26.6741 60.4142C26.5843 60.6406 26.5663 60.8368 26.621 61.0036C26.6749 61.1689 26.8124 61.2882 27.0335 61.3629C27.2561 61.4355 27.4444 61.4233 27.5991 61.3256C27.7553 61.2292 27.878 61.069 27.9678 60.8426C28.0569 60.6147 28.0757 60.4192 28.0241 60.256C27.9718 60.0936 27.8343 59.9743 27.6116 59.8995C27.3882 59.8248 27.1991 59.8356 27.0428 59.9312C26.8866 60.0253 26.7632 60.1863 26.6741 60.4142Z" fill="#505661"/>
<path d="M30.6563 61.0198C30.6204 61.1485 30.5485 61.2398 30.4407 61.293C30.3321 61.3447 30.2032 61.3641 30.0532 61.3505L30.0501 61.3591C30.2141 61.4223 30.3298 61.5028 30.3969 61.6006C30.4633 61.6983 30.479 61.809 30.4438 61.9312C30.3977 62.0937 30.2915 62.2101 30.1251 62.2791C29.9602 62.3495 29.7423 62.3524 29.4719 62.2877C29.361 62.2604 29.2579 62.2273 29.1626 62.1871C29.0688 62.1483 28.9852 62.1008 28.9126 62.0433L28.9719 61.8277C29.0469 61.891 29.1344 61.9456 29.2344 61.9916C29.3344 62.0376 29.4298 62.0714 29.5219 62.0922C29.7048 62.1361 29.8516 62.1382 29.9626 62.098C30.0727 62.0599 30.1446 61.983 30.1782 61.868C30.211 61.7494 30.1813 61.6495 30.0876 61.569C29.9938 61.4885 29.8477 61.4245 29.6501 61.3763L29.3626 61.3073L29.4188 61.1118L29.6907 61.178C29.8923 61.2261 30.0516 61.2319 30.1688 61.1952C30.2852 61.1571 30.3579 61.0852 30.3876 60.9796C30.4141 60.8862 30.3969 60.8057 30.3344 60.7381C30.2719 60.6691 30.1798 60.6202 30.0594 60.5915C29.9321 60.5613 29.8227 60.5505 29.7313 60.5598C29.6391 60.5699 29.5477 60.5879 29.4563 60.6145L29.3782 60.4276C29.4735 60.3931 29.5852 60.3715 29.7126 60.3615C29.8391 60.3521 29.9751 60.3643 30.1188 60.3988C30.3376 60.4527 30.4907 60.5361 30.5782 60.649C30.6673 60.7625 30.6938 60.8862 30.6563 61.0198Z" fill="#505661"/>
<path d="M33.0537 62.9425L32.7944 62.8994L32.9569 62.0139L31.9006 61.85L31.7381 62.7355L31.4787 62.6953L31.8287 60.7977L32.0881 60.838L31.9381 61.6401L32.9944 61.804L33.1444 61.0019L33.4037 61.045L33.0537 62.9425Z" fill="#505661"/>
<path d="M35.6985 63.178L35.4954 62.5685L34.6704 62.511L34.3704 63.0831L34.1048 63.0658L35.0767 61.1971L35.3142 61.2144L35.9673 63.1981L35.6985 63.178ZM35.436 62.3471L35.2485 61.7491C35.2439 61.734 35.2368 61.7081 35.2267 61.6715C35.2157 61.6334 35.2056 61.5939 35.1954 61.5536C35.1868 61.5119 35.1798 61.4789 35.1735 61.4559C35.1501 61.5098 35.1282 61.5622 35.1079 61.614C35.0892 61.6657 35.072 61.7074 35.0579 61.7376L34.7735 62.3011L35.436 62.3471Z" fill="#505661"/>
<path d="M37.0004 61.2952L37.5973 61.2894C37.8574 61.288 38.0551 61.3225 38.191 61.3929C38.3262 61.4619 38.3949 61.5841 38.3973 61.7581C38.3973 61.8716 38.3629 61.9665 38.2941 62.0427C38.227 62.1174 38.1301 62.1663 38.0035 62.1893V62.2037C38.091 62.2152 38.1699 62.2382 38.241 62.2727C38.3137 62.3072 38.3707 62.3553 38.4129 62.4164C38.4543 62.4782 38.4754 62.5587 38.4754 62.6579C38.477 62.8326 38.4137 62.9684 38.2848 63.0662C38.1574 63.1625 37.9816 63.2114 37.7566 63.2128L37.0223 63.2186L37.0004 61.2952ZM37.2723 62.1117L37.6598 62.1088C37.8363 62.1074 37.9582 62.0793 38.0254 62.0254C38.0918 61.9722 38.1254 61.8925 38.1254 61.7868C38.1231 61.6819 38.0816 61.6071 38.0004 61.5626C37.9191 61.5166 37.7895 61.495 37.6129 61.4964L37.266 61.4993L37.2723 62.1117ZM37.2754 62.3129L37.2816 63.0116L37.7035 63.0087C37.8887 63.0072 38.0168 62.9727 38.0879 62.9052C38.1606 62.8362 38.1957 62.7485 38.1941 62.6407C38.1918 62.5415 38.1535 62.461 38.0785 62.3992C38.0035 62.3381 37.8699 62.3086 37.6785 62.3101L37.2754 62.3129Z" fill="#505661"/>
<path d="M40.9985 63.0212L40.6828 62.4519L39.8578 62.5267L39.6735 63.1419L39.4078 63.1649L40.0172 61.1697L40.2516 61.1467L41.2672 62.9982L40.9985 63.0212ZM40.5828 62.2449L40.286 61.6872C40.2774 61.6721 40.2649 61.6469 40.2485 61.6124C40.2336 61.5779 40.2172 61.542 40.1985 61.5032C40.1813 61.4629 40.168 61.4313 40.1578 61.4083C40.1469 61.4658 40.1367 61.5219 40.1266 61.5751C40.118 61.629 40.1086 61.6721 40.0985 61.7044L39.9235 62.3024L40.5828 62.2449Z" fill="#505661"/>
<path d="M43.883 62.5783L43.6268 62.6243L43.4455 61.7446L42.3924 61.9286L42.5737 62.8083L42.3143 62.8543L41.9237 60.9655L42.1831 60.9195L42.3487 61.7187L43.4018 61.5347L43.2362 60.7355L43.4924 60.6895L43.883 62.5783Z" fill="#505661"/>
<path d="M44.6107 60.4423L44.8482 60.379L45.1732 61.391C45.192 61.4507 45.2107 61.5161 45.2295 61.5865C45.2498 61.6555 45.2678 61.7209 45.2826 61.782C45.299 61.8417 45.3107 61.8855 45.317 61.9142L45.3295 61.9114L45.942 60.0829L46.2232 60.0053L46.8139 61.851L46.5795 61.9171L46.2576 60.9137C46.2389 60.8527 46.2178 60.7844 46.1951 60.7096C46.174 60.6349 46.156 60.5673 46.142 60.5055C46.1271 60.4444 46.1154 60.4013 46.1076 60.3761H46.0982L45.4826 62.2132L45.2013 62.288L44.6107 60.4423Z" fill="#505661"/>
<path d="M49.1606 61.0483L48.0731 61.4422L47.3075 59.6511L48.395 59.2572L48.4794 59.4556L47.6357 59.7603L47.8763 60.3209L48.67 60.0334L48.7513 60.2289L47.9575 60.5164L48.2325 61.1547L49.0763 60.8499L49.1606 61.0483Z" fill="#505661"/>
<path d="M52.9672 59.2925L52.7359 59.4132L51.8266 57.9211L51.2484 58.2172C51.3047 58.3401 51.3625 58.4702 51.4203 58.6082C51.4805 58.7448 51.5367 58.8756 51.5891 59.0021C51.6406 59.1286 51.6812 59.2378 51.7109 59.3298C51.7523 59.447 51.7797 59.5498 51.7922 59.6375C51.8047 59.7259 51.7953 59.8035 51.7641 59.8703C51.7344 59.9357 51.6766 59.9911 51.5891 60.0371C51.5594 60.0529 51.5281 60.0651 51.4953 60.0745C51.4617 60.0845 51.4328 60.091 51.4078 60.0946L51.2984 59.9192C51.3219 59.9178 51.3469 59.9135 51.3734 59.9077C51.4008 59.9005 51.4273 59.8897 51.4547 59.8761C51.5086 59.8473 51.5375 59.8064 51.5422 59.7525C51.5484 59.6993 51.5422 59.6396 51.5234 59.5742C51.5047 59.5095 51.4844 59.4441 51.4641 59.3787C51.4406 59.314 51.4055 59.2192 51.3578 59.0941C51.3078 58.9697 51.2477 58.8253 51.1766 58.66C51.1039 58.4932 51.0266 58.3164 50.9453 58.1281L51.9453 57.6135L52.9672 59.2925Z" fill="#505661"/>
<path d="M53.9581 57.5358L52.7112 57.1994L52.9519 57.0442L54.1862 57.3863L53.6081 56.6244L53.8144 56.4922L54.3925 57.254L54.4675 56.0695L54.7081 55.9143L54.6206 57.1045L55.9269 57.4783L55.68 57.6364L54.405 57.2684L55.0112 58.0677L54.805 58.1999L54.1987 57.4007L54.13 58.6312L53.8862 58.7893L53.9581 57.5358Z" fill="#505661"/>
<path d="M55.3987 55.397L55.5831 55.2475L56.3331 56.0467C56.3768 56.0927 56.4252 56.1438 56.4768 56.1991C56.5268 56.2552 56.5721 56.3076 56.6143 56.3572C56.6557 56.4075 56.6846 56.4435 56.7018 56.4665L56.7112 56.4579L56.4456 54.5604L56.6674 54.385L58.0362 55.8397L57.8518 55.9864L57.1081 55.1957C57.062 55.1483 57.0127 55.0944 56.9612 55.0347C56.9088 54.9736 56.862 54.919 56.8206 54.8709C56.7784 54.8213 56.7471 54.786 56.7268 54.7645L56.7206 54.7702L56.9893 56.6735L56.7674 56.8517L55.3987 55.397Z" fill="#505661"/>
</svg>
